<svg id="图层_1" data-name="图层 1" xmlns="http://www.w3.org/2000/svg" xmlns:xlink="http://www.w3.org/1999/xlink" viewBox="0 0 150 150"><defs><style>.cls-1{fill:url(#未命名的渐变_296);}.cls-2{fill:url(#未命名的渐变_298);}.cls-3{fill:url(#未命名的渐变_305);}</style><linearGradient id="未命名的渐变_296" x1="74.69" y1="1.51" x2="74.69" y2="147.51" gradientUnits="userSpaceOnUse"><stop offset="0" stop-color="#ffe4bf"/><stop offset="1" stop-color="#ff7a3f"/></linearGradient><linearGradient id="未命名的渐变_298" x1="75.69" y1="114.03" x2="75.69" y2="35" gradientUnits="userSpaceOnUse"><stop offset="0" stop-color="#ffe4bf"/><stop offset="1" stop-color="#fff"/></linearGradient><linearGradient id="未命名的渐变_305" x1="67.74" y1="71.41" x2="67.74" y2="67.36" gradientTransform="translate(-16.13 5.35)" gradientUnits="userSpaceOnUse"><stop offset="0" stop-color="#ffe4bf"/><stop offset="1" stop-color="#ffe7aa"/></linearGradient></defs><title>book</title><circle class="cls-1" cx="74.69" cy="74.51" r="73"/><path class="cls-2" d="M98.7,35h-46a7.85,7.85,0,0,0-7.83,7.82V106.2A7.85,7.85,0,0,0,52.69,114h46a7.85,7.85,0,0,0,7.83-7.83V42.82A7.85,7.85,0,0,0,98.7,35ZM67.26,55.3H98.55a2.76,2.76,0,1,1,0,5.52H67.26a2.76,2.76,0,0,1,0-5.52ZM98.55,94H67.26a2.76,2.76,0,0,1,0-5.52H98.55a2.76,2.76,0,1,1,0,5.52Zm.31-16.57H67.56a2.76,2.76,0,1,1,0-5.52h31.3a2.76,2.76,0,1,1,0,5.52Z"/><rect class="cls-3" x="33.2" y="72.72" width="36.82" height="4.05" rx="1.93" ry="1.93" transform="translate(126.35 23.13) rotate(90)"/></svg>