<?xml version="1.0" standalone="no"?><!DOCTYPE svg PUBLIC "-//W3C//DTD SVG 1.1//EN" "http://www.w3.org/Graphics/SVG/1.1/DTD/svg11.dtd"><svg t="1589617494038" class="icon" viewBox="0 0 1024 1024" version="1.1" xmlns="http://www.w3.org/2000/svg" p-id="10864" xmlns:xlink="http://www.w3.org/1999/xlink" width="200" height="200"><defs><style type="text/css"></style></defs><path d="M595.375 195.625h-174.75c-17.475 0-29.125-11.65-29.125-29.125s11.65-29.125 29.125-29.125h174.75c17.475 0 29.125 11.65 29.125 29.125s-11.65 29.125-29.125 29.125z" fill="#1296db" p-id="10865"></path><path d="M915.75 137.375h-87.375c-14.563 0-29.125 14.563-29.125 29.125s14.563 29.125 29.125 29.125h87.375V341.25h-815.5V195.625h87.375c14.563 0 29.125-14.563 29.125-29.125s-14.563-29.125-29.125-29.125H100.25c-32.038 0-58.25 26.212-58.25 58.25V923.75C42 955.787 68.212 982 100.25 982h815.5c32.037 0 58.25-26.213 58.25-58.25V195.625c0-32.038-26.213-58.25-58.25-58.25z m0 786.375h-815.5V399.5h815.5v524.25z" fill="#1296db" p-id="10866"></path><path d="M711.875 253.875c17.475 0 29.125-11.65 29.125-29.125V79.125C741 61.65 729.35 50 711.875 50S682.75 61.65 682.75 79.125V224.75c0 17.475 11.65 29.125 29.125 29.125zM304.125 253.875c17.475 0 29.125-11.65 29.125-29.125V79.125C333.25 61.65 321.6 50 304.125 50S275 61.65 275 79.125V224.75c0 17.475 11.65 29.125 29.125 29.125z" fill="#1296db" p-id="10867"></path><path d="M382.806 801.122h96v96h-96zM569.979 459.668h96v96h-96zM382.806 626.272h96v96h-96zM756.5 626.272h96v96h-96zM569.979 626.272h96v96h-96zM196.938 801.122h96v96h-96zM197.063 626.272h96v96h-96zM569.979 801.122h96v96h-96zM382.806 459.668h96v96h-96zM756.5 459.668h96v96h-96z" fill="#1296db" p-id="10868"></path><path d="M394.5 472H469v74.5h-74.5z" fill="#1296db" p-id="10869"></path><path d="M768.5 472H843v74.5h-74.5z" fill="#1296db" p-id="10870"></path><path d="M581.5 472H656v74.5h-74.5zM207.813 812.622h74.5v74.5h-74.5zM767.5 638.772H842v74.5h-74.5zM394.594 812h74.5v74.5h-74.5zM581.25 813h74.5v74.5h-74.5z" fill="#1296db" p-id="10871"></path><path d="M581.313 637.022h74.5v74.5h-74.5zM395.125 638.772h74.5v74.5h-74.5zM208.938 637.022h74.5v74.5h-74.5z" fill="#1296db" p-id="10872"></path></svg>