<?xml version="1.0" standalone="no"?><!DOCTYPE svg PUBLIC "-//W3C//DTD SVG 1.1//EN" "http://www.w3.org/Graphics/SVG/1.1/DTD/svg11.dtd"><svg class="icon" width="200px" height="200.00px" viewBox="0 0 1024 1024" version="1.1" xmlns="http://www.w3.org/2000/svg"><path fill="#eeb174" d="M492.8 697.6c-25.6 0-32-6.4-25.6-32 0-44.8 19.2-89.6 19.2-140.8C486.4 512 467.2 505.6 448 505.6c-64 0-153.6 25.6-172.8 25.6-44.8 0-44.8-38.4-44.8-76.8C224 313.6 448 64 505.6 64l102.4 0c6.4 0 32 0 32 12.8 0 12.8-268.8 198.4-268.8 326.4 0 6.4 6.4 12.8 19.2 12.8 19.2 0 96-12.8 108.8-44.8 38.4-134.4 121.6-185.6 147.2-185.6 6.4 0 6.4 6.4 6.4 6.4 0 6.4-32 64-32 140.8 0 57.6 12.8 64 76.8 64 32 0 38.4-12.8 38.4 89.6 0 19.2 0 32-12.8 32-19.2 0-44.8-6.4-70.4-6.4C627.2 499.2 614.4 505.6 614.4 576c0 32 6.4 57.6 6.4 96C614.4 691.2 531.2 697.6 492.8 697.6z"  /><path fill="#eeb174" d="M166.4 806.4c0-70.4 38.4-153.6 121.6-153.6 38.4 0 64 19.2 64 44.8 0 12.8-6.4 38.4-25.6 38.4C320 729.6 320 704 288 704c-44.8 0-64 57.6-64 96 0 38.4 19.2 76.8 64 76.8 44.8 0 57.6-44.8 64-44.8 0 0 6.4 6.4 6.4 25.6 0 51.2-32 83.2-83.2 83.2C198.4 934.4 166.4 870.4 166.4 806.4z"  /><path fill="#eeb174" d="M422.4 876.8c-12.8-89.6 38.4-140.8 96-147.2 44.8-6.4 89.6 6.4 96 51.2 12.8 76.8-128 83.2-121.6 121.6 0 19.2 38.4 25.6 57.6 19.2 70.4-12.8 64-57.6 70.4-57.6 6.4 0 12.8 19.2 12.8 19.2 6.4 44.8-32 76.8-83.2 89.6C467.2 985.6 428.8 934.4 422.4 876.8zM467.2 819.2c0 6.4 0 6.4 6.4 6.4 6.4 0 76.8-12.8 76.8-32 0-19.2-19.2-32-32-32C486.4 761.6 467.2 793.6 467.2 819.2z"  /><path fill="#eeb174" d="M832 646.4c0 12.8-12.8 32-12.8 38.4 0 6.4 0 12.8 12.8 12.8 6.4 0 12.8 0 19.2 0 19.2 0 19.2 12.8 19.2 25.6 0 6.4 0 19.2-12.8 19.2-6.4 0-12.8-6.4-25.6-6.4-25.6 0-25.6 25.6-25.6 57.6 0 102.4 25.6 121.6 25.6 128 0 6.4-57.6 25.6-70.4 25.6-19.2 0-25.6-83.2-25.6-108.8 0-44.8 0-64 0-70.4 0-12.8 6.4-32-19.2-32-6.4 0-12.8 6.4-19.2 6.4-6.4 0-6.4-6.4-6.4-12.8 0-32 12.8-32 32-32 0 0 6.4 0 6.4 0 12.8 0 19.2-19.2 19.2-32 0-12.8 57.6-25.6 70.4-25.6C832 640 832 640 832 646.4z"  /></svg>