<?xml version="1.0" standalone="no"?><!DOCTYPE svg PUBLIC "-//W3C//DTD SVG 1.1//EN" "http://www.w3.org/Graphics/SVG/1.1/DTD/svg11.dtd"><svg class="icon" width="200px" height="200.00px" viewBox="0 0 1024 1024" version="1.1" xmlns="http://www.w3.org/2000/svg"><path d="M621.738667 402.261333h329.102222c40.391111 0 73.159111 32.597333 73.159111 73.159111v475.420445c0 40.391111-32.540444 73.159111-73.159111 73.159111H475.420444c-40.391111 0-73.159111-32.540444-73.159111-73.159111V621.795556H73.159111C32.768 621.738667 0 589.141333 0 548.579556V73.159111C0 32.768 32.540444 0 73.159111 0h475.420445c40.391111 0 73.159111 32.540444 73.159111 73.159111V402.204444z m0 73.159111v73.159112c0 40.391111-32.597333 73.159111-73.159111 73.159111H475.420444v292.579555c0 20.195556 16.384 36.522667 36.522667 36.522667h402.318222a36.522667 36.522667 0 0 0 36.579556-36.522667V512a36.522667 36.522667 0 0 0-36.579556-36.522667H621.795556z m-548.579556-365.795555V512c0 20.195556 16.327111 36.522667 36.522667 36.522667H512A36.522667 36.522667 0 0 0 548.522667 512V109.738667a36.522667 36.522667 0 0 0-36.465778-36.579556H109.738667a36.522667 36.522667 0 0 0-36.579556 36.522667z m877.681778 182.954667H877.795556a146.261333 146.261333 0 0 0-146.318223-146.318223V73.159111a219.420444 219.420444 0 0 1 219.420445 219.420445zM73.159111 731.420444H146.204444a146.261333 146.261333 0 0 0 146.318223 146.318223v73.102222a219.420444 219.420444 0 0 1-219.420445-219.420445z" fill="#979797" /><path d="M328.533333 128c7.338667 1.080889 11.036444 2.104889 11.036445 3.128889a12.060444 12.060444 0 0 1-1.592889 4.721778 84.878222 84.878222 0 0 0-4.721778 29.866666v39.253334h136.760889v179.2H411.875556v-23.608889H333.255111v135.168h-56.547555V360.561778H199.68v28.273778h-53.475556V204.970667h128.853334V128h53.475555z m-51.825777 121.059556H199.68v69.063111h77.027556V249.059556z m135.168 0H333.255111v69.12H411.875556V249.059556zM764.302222 585.159111l102.115556 290.702222h-62.805334l-22.016-61.326222h-114.744888l-21.959112 61.326222h-59.733333l105.244445-290.702222h73.955555z m-37.717333 56.547556h-1.592889l-42.439111 124.131555h83.285333l-39.253333-124.131555z" fill="#3882F5" /></svg>