<?xml version="1.0" standalone="no"?><!DOCTYPE svg PUBLIC "-//W3C//DTD SVG 1.1//EN" "http://www.w3.org/Graphics/SVG/1.1/DTD/svg11.dtd"><svg class="icon" width="200px" height="172.54px" viewBox="0 0 1187 1024" version="1.1" xmlns="http://www.w3.org/2000/svg"><path fill="#1296db" d="M1174.482533 422.553413c-8.62289-25.32974-38.264075-38.264075-86.767832-38.264075a459.70783 459.70783 0 0 0-98.085376 12.934336c0 15.628988-2.694653 30.719046-3.772514 45.270173l46.348034 16.706849-47.425895 7.006099v48.503757l39.341936 15.628988-38.803006 5.389306c0 18.323642 0 35.030491 3.772515 51.19841l40.958728 8.622891-38.803006 7.545028c0 10.778613 2.694653 22.635087 4.311445 35.030492a250.063814 250.063814 0 0 0 62.515954 8.62289 104.013612 104.013612 0 0 0 73.294566-22.096156 175.152456 175.152456 0 0 0 50.120549-89.462485 204.25471 204.25471 0 0 0-7.006098-112.636503z"  /><path fill="#1296db" d="M126.801382 646.748557a250.063814 250.063814 0 0 0 62.515953-8.62289c0-12.395405 3.233584-24.790809 4.311445-35.030492l-38.803005-10.239682 40.958728-8.62289c0-16.70685 2.694653-33.413699 3.772514-51.19841l-38.264075-3.233584 39.341936-15.628988v-48.503757l-47.425895-7.006098 45.809103-16.70685c0-16.70685 0-31.257977-3.772514-45.270173A458.091038 458.091038 0 0 0 97.160197 383.750408c-48.503757 0-78.144942 12.934335-86.767832 38.264075a202.098987 202.098987 0 0 0-4.311445 113.175433 175.152456 175.152456 0 0 0 47.425896 88.923554 103.474682 103.474682 0 0 0 73.294566 22.635087z"  /><path fill="#1296db" d="M1051.067418 687.168354v137.966242h-44.192312a675.280083 675.280083 0 0 0-189.703583 26.946532 937.200371 937.200371 0 0 0-182.697485 73.294566l-5.928237 3.233584V181.65142a793.305892 793.305892 0 0 1 403.120114-107.786126h18.323641v274.854623a315.27442 315.27442 0 0 1 70.599913 0V37.756941a35.030491 35.030491 0 0 0-34.49156-37.725144h-53.893064a882.229447 882.229447 0 0 0-226.889796 29.102254 791.15017 791.15017 0 0 0-212.8776 90.540346A784.683002 784.683002 0 0 0 168.837971 0.031797h-53.893063a35.030491 35.030491 0 0 0-35.030491 37.725144v307.729392a367.550692 367.550692 0 0 1 70.599912 0V71.17064h4.311446a784.144071 784.144071 0 0 1 211.799738 24.79081 675.819014 675.819014 0 0 1 188.625722 84.612109v746.418927l-5.928237-3.233584a800.31199 800.31199 0 0 0-165.990635-73.294566 672.0465 672.0465 0 0 0-189.164652-26.946532h-43.653382v-136.88838h-22.635086a215.572253 215.572253 0 0 1-47.964826-5.389307v185.392138a35.030491 35.030491 0 0 0 34.49156 30.719046h4.311445a649.411413 649.411413 0 0 1 75.989219-4.850376 609.530546 609.530546 0 0 1 171.379942 23.712948 800.31199 800.31199 0 0 1 206.410432 99.163237H604.832853a910.253839 910.253839 0 0 1 230.662311-99.163237 613.303061 613.303061 0 0 1 170.841011-24.251878 639.710662 639.710662 0 0 1 75.450289 4.311445h4.311445a35.030491 35.030491 0 0 0 34.49156-30.719046V677.467603a202.637918 202.637918 0 0 1-69.522051 9.700751z"  /></svg>