<?xml version="1.0" standalone="no"?><!DOCTYPE svg PUBLIC "-//W3C//DTD SVG 1.1//EN" "http://www.w3.org/Graphics/SVG/1.1/DTD/svg11.dtd"><svg class="icon" width="200px" height="200.00px" viewBox="0 0 1024 1024" version="1.1" xmlns="http://www.w3.org/2000/svg"><path d="M429.292308 693.169231h169.353846v224.492307h-169.353846v-224.492307zM236.307692 189.046154v299.323077c-90.584615-11.815385-161.476923-86.646154-161.476923-181.169231v-118.153846h161.476923zM295.384615 133.907692H66.953846C39.384615 133.907692 19.692308 153.6 19.692308 177.230769v129.969231c0 129.969231 110.276923 236.307692 244.184615 236.307692H295.384615V133.907692z m653.784616 55.138462v114.215384c0 90.584615-70.892308 169.353846-161.476923 185.107693V189.046154h161.476923z m7.876923-55.138462H728.615385v409.6h23.630769c137.846154 0 248.123077-106.338462 248.123077-240.246154V177.230769c3.938462-23.630769-15.753846-43.323077-43.323077-43.323077z" fill="#EFB057" /><path d="M846.769231 0H177.230769c-15.753846 0-31.507692 15.753846-31.507692 31.507692s15.753846 27.569231 31.507692 27.569231h15.753846V405.661538c0 173.292308 141.784615 311.138462 319.015385 311.138462s319.015385-137.846154 319.015385-311.138462V63.015385v-3.938462h15.753846c15.753846 0 31.507692-11.815385 31.507692-31.507692 0-11.815385-15.753846-27.569231-31.507692-27.569231z" fill="#FDBE64" /><path d="M838.892308 1024H189.046154c-31.507692 0-55.138462-23.630769-55.138462-55.138462v-39.384615c0-31.507692 23.630769-55.138462 55.138462-55.138461h645.907692c31.507692 0 55.138462 23.630769 55.138462 55.138461v39.384615c3.938462 27.569231-19.692308 55.138462-51.2 55.138462z" fill="#424242" /><path d="M736.492308 972.8H287.507692c-11.815385 0-19.692308-7.876923-19.692307-19.692308v-11.815384c0-11.815385 7.876923-19.692308 19.692307-19.692308h448.984616c11.815385 0 19.692308 7.876923 19.692307 19.692308v11.815384c0 11.815385-7.876923 19.692308-19.692307 19.692308zM831.015385 405.661538l-122.092308-157.538461-362.338462 240.246154 173.292308 228.430769c173.292308-3.938462 311.138462-141.784615 311.138462-311.138462z" fill="#EFB057" /><path d="M295.384615 358.4c0 78.769231 43.323077 149.661538 110.276923 185.107692s153.6 39.384615 220.553847 0 110.276923-110.276923 110.276923-185.107692-43.323077-149.661538-110.276923-185.107692-153.6-39.384615-220.553847 0S295.384615 279.630769 295.384615 358.4z" fill="#FFFCF5" /><path d="M519.876923 228.430769c23.630769 0 47.261538 7.876923 63.015385 19.692308 15.753846 11.815385 23.630769 27.569231 23.630769 51.2 0 27.569231-15.753846 47.261538-43.323077 55.138461 15.753846 3.938462 27.569231 11.815385 35.446154 19.692308 7.876923 7.876923 11.815385 23.630769 11.815384 35.446154 0 23.630769-7.876923 43.323077-23.630769 59.076923-15.753846 15.753846-39.384615 23.630769-66.953846 23.630769s-47.261538-7.876923-63.015385-19.692307c-15.753846-15.753846-27.569231-35.446154-31.507692-63.015385h39.384616c0 15.753846 7.876923 31.507692 15.753846 39.384615 7.876923 7.876923 19.692308 11.815385 35.446154 11.815385s27.569231-3.938462 39.384615-15.753846c7.876923-7.876923 11.815385-19.692308 11.815385-31.507692 0-15.753846-3.938462-27.569231-15.753847-31.507693-7.876923-7.876923-19.692308-11.815385-39.384615-11.815384H492.307692v-31.507693h19.692308c15.753846 0 27.569231-3.938462 35.446154-11.815384 7.876923-7.876923 11.815385-15.753846 11.815384-27.569231s-3.938462-23.630769-11.815384-27.569231c-7.876923-7.876923-19.692308-11.815385-35.446154-11.815384s-27.569231 3.938462-35.446154 11.815384c-7.876923 7.876923-15.753846 19.692308-15.753846 35.446154h-39.384615c3.938462-23.630769 11.815385-43.323077 27.56923-59.076923 27.569231-11.815385 47.261538-19.692308 70.892308-19.692308z" fill="#FDBE64" /></svg>