<svg id="图层_1" data-name="图层 1" xmlns="http://www.w3.org/2000/svg" xmlns:xlink="http://www.w3.org/1999/xlink" viewBox="0 0 150 150"><defs><style>.cls-1{fill:url(#未命名的渐变_367);}.cls-2{fill:url(#未命名的渐变_317);}.cls-3{fill:url(#未命名的渐变_317-2);}.cls-4{fill:url(#未命名的渐变_317-3);}</style><linearGradient id="未命名的渐变_367" x1="76" y1="1.75" x2="76" y2="147.75" gradientUnits="userSpaceOnUse"><stop offset="0" stop-color="#d4fff8"/><stop offset="1" stop-color="#00e9a5"/></linearGradient><linearGradient id="未命名的渐变_317" x1="101.04" y1="46.36" x2="60.76" y2="116.12" gradientUnits="userSpaceOnUse"><stop offset="0" stop-color="#d4fcff"/><stop offset="1" stop-color="#fff"/></linearGradient><linearGradient id="未命名的渐变_317-2" x1="61.79" y1="77.53" x2="48.68" y2="100.24" xlink:href="#未命名的渐变_317"/><linearGradient id="未命名的渐变_317-3" x1="105.32" y1="77.53" x2="92.21" y2="100.25" xlink:href="#未命名的渐变_317"/></defs><title>listen_6_画板 1</title><circle class="cls-1" cx="76" cy="74.75" r="73"/><path class="cls-2" d="M112.12,71.14a35.17,35.17,0,0,0-70.24,0C35.07,73.32,31,80,31,88c0,9.71,6.07,17.58,15.78,17.58a3.17,3.17,0,0,0,3.16-3.16V73.56c0-.08,0-.14,0-.22a1.5,1.5,0,0,0,0-.22v0a27.06,27.06,0,0,1,54.12,0v0a1.5,1.5,0,0,0,0,.22c0,.08,0,.14,0,.22v28.85a3.17,3.17,0,0,0,3.16,3.16C116.93,105.57,123,97.7,123,88,123,80,118.93,73.32,112.12,71.14Z"/><path class="cls-3" d="M52.65,76.73V101a2.57,2.57,0,0,0,4.59,1.61c1.28-1.65,1.72-4.18,1.72-7V82.12c0-2.82-.44-5.34-1.72-7A2.58,2.58,0,0,0,52.65,76.73Z"/><path class="cls-4" d="M96.76,75.12c-1.28,1.66-1.72,4.18-1.72,7V95.65c0,2.82.44,5.35,1.72,7a2.57,2.57,0,0,0,4.59-1.61V76.73A2.58,2.58,0,0,0,96.76,75.12Z"/></svg>