<?xml version="1.0" standalone="no"?><!DOCTYPE svg PUBLIC "-//W3C//DTD SVG 1.1//EN" "http://www.w3.org/Graphics/SVG/1.1/DTD/svg11.dtd"><svg t="1589617455627" class="icon" viewBox="0 0 1024 1024" version="1.1" xmlns="http://www.w3.org/2000/svg" p-id="10410" xmlns:xlink="http://www.w3.org/1999/xlink" width="200" height="200"><defs><style type="text/css"></style></defs><path d="M831.4 324.2c0 239.9-280.2 462.8-315.5 490-2.2 1.7-5.1 1.7-7.3 0-35.5-27.1-317.3-250.3-317.3-490.2 0-165.2 155-294 320.1-294s320 129 320 294.2z" fill="#00ACF9" p-id="10411"></path><path d="M512.2 835.5c-5.6 0-11.1-1.8-15.8-5.3-15.8-12.1-98.3-76.8-175.1-168.3-43.8-52.1-78.6-104.3-103.4-155-30.9-63.3-46.6-124.8-46.6-182.9 0-43.1 9.7-84.9 28.8-124.3 18-37.2 43.6-70.7 76-99.5C340.4 42.8 426.2 10 511.4 10c85.2 0 170.9 32.9 235.2 90.2 32.4 28.9 58 62.4 76 99.6 19.1 39.4 28.8 81.3 28.8 124.4 0 58.1-15.6 119.6-46.3 182.7-24.7 50.7-59.3 102.8-102.8 154.9-76.5 91.5-158.6 156.2-174.2 168.3-4.7 3.6-10.3 5.4-15.9 5.4zM511.4 50c-162.7 0-300.1 125.5-300.1 274 0 216.7 244.6 423.1 300.9 467.7 56-44.6 299.2-250.8 299.2-467.5C811.4 175.6 674 50 511.4 50z" fill="#00ACF9" p-id="10412"></path><path d="M511.3 839.5c-5.7 0-11.4-1.9-16.2-5.7-22-17.5-99.7-81.7-174.2-172.8-43.5-53.2-78-106.1-102.7-157.4C187.6 439.8 172 378 172 320c0-43.1 9.6-85.1 28.6-125 17.9-37.7 43.4-71.8 75.6-101.2C340.7 34.8 426.4 1 511.3 1c85 0 170.9 33.8 235.8 92.8 32.4 29.5 58.1 63.5 76.2 101.2 19.2 39.9 28.9 82 28.9 125.1 0 83.2-31.8 173.1-94.6 267.2-6.1 9.2-18.5 11.7-27.7 5.5-9.2-6.1-11.7-18.5-5.5-27.7 58.3-87.4 87.9-169.8 87.9-245C812.3 171.4 671.7 41 511.5 41 351.9 40.9 212 171.3 212 320c0 216.6 242.9 429 299.3 475.5 21-17.2 65.4-55.2 114.1-107.3 7.5-8.1 20.2-8.5 28.3-1 8.1 7.5 8.5 20.2 1 28.3-59 63.1-112.3 106.5-127.2 118.3-4.8 3.8-10.5 5.7-16.2 5.7z" fill="#00ACF9" p-id="10413"></path><path d="M517 452.6c-75.5 1.7-137.2-60.1-135.5-135.5 1.6-70.6 59-128 129.6-129.6 75.5-1.7 137.2 60.1 135.5 135.5-1.6 70.6-59 128-129.6 129.6z m1.3-225.1c-54.5-2.5-99.3 42.4-96.8 96.8 2.2 47.5 40.7 86 88.2 88.2 54.5 2.5 99.4-42.4 96.8-96.8-2.2-47.6-40.7-86-88.2-88.2z" fill="#FFFFFF" p-id="10414"></path><path d="M512.1 1010.6c-101 0-196.3-13.1-268.3-37-36.2-12-65-26.2-85.4-42.3-24.4-19.1-36.8-40.5-36.8-63.5 0-20.2 10.2-50.2 58.9-78.3 32.9-19 79.5-35 134.9-46.2 10.8-2.2 21.4 4.8 23.6 15.6 2.2 10.8-4.8 21.4-15.6 23.6-51.2 10.4-93.6 24.7-122.8 41.6-25.1 14.5-38.9 30-38.9 43.7 0 42.9 133.3 102.8 350.5 102.8 217.1 0 350.5-59.9 350.5-102.8 0-13.7-13.9-29.3-39.1-43.8-29.3-16.9-71.9-31.3-123.3-41.6-10.8-2.2-17.8-12.7-15.7-23.6 2.2-10.8 12.7-17.8 23.6-15.7 55.5 11.2 102.4 27.2 135.4 46.2 48.9 28.2 59.1 58.2 59.1 78.5 0 23-12.4 44.4-36.8 63.5-20.5 16-49.2 30.3-85.4 42.3-72.1 23.8-167.4 37-268.4 37z" fill="#00ACF9" p-id="10415"></path></svg>