<?xml version="1.0" standalone="no"?><!DOCTYPE svg PUBLIC "-//W3C//DTD SVG 1.1//EN" "http://www.w3.org/Graphics/SVG/1.1/DTD/svg11.dtd"><svg t="1589617370800" class="icon" viewBox="0 0 1024 1024" version="1.1" xmlns="http://www.w3.org/2000/svg" p-id="9556" xmlns:xlink="http://www.w3.org/1999/xlink" width="200" height="200"><defs><style type="text/css"></style></defs><path d="M524.899504 968.978102c-246.944772 0-447.850944-200.902975-447.850945-447.847747S277.954731 73.279411 524.899504 73.279411c4.923231 0 10.10541 0.102301 16.304205 0.326084a22.378321 22.378321 0 0 1 11.243508 41.227261c-92.889214 59.296157-148.342693 160.39182-148.342693 270.432418 0 176.779145 143.819075 320.601417 320.59822 320.601418 68.189941 0 133.304461-21.137923 188.307178-61.127983a22.378321 22.378321 0 0 1 34.261209 25.549649c-63.097275 178.655727-232.833642 298.689844-422.371627 298.689844zM471.741401 121.527071C274.505273 147.62339 121.808398 316.877025 121.808398 521.130355c0 222.264681 180.826424 403.091105 403.094303 403.091105 147.565846 0 281.800606-80.840086 352.11329-206.734126-47.406875 21.809272-99.036858 33.1359-152.313247 33.1359-201.459236 0-365.354862-163.898823-365.354862-365.35806-0.003197-101.076482 41.045038-195.519391 112.393519-263.738103z" fill="#009FE8" p-id="9557"></path><path d="M780.303281 570.26036h-167.831014a22.378321 22.378321 0 0 1-12.31447-41.061022l105.532965-69.558215h-93.215298a22.378321 22.378321 0 1 1 0-44.756642h167.831014a22.378321 22.378321 0 0 1 12.31447 41.061022l-105.532964 69.558215h93.215297a22.378321 22.378321 0 1 1 0 44.756642zM875.305648 340.083344h-102.98823a15.984515 15.984515 0 0 1-8.797878-29.328388l58.490538-38.55465h-49.69266a15.984515 15.984515 0 1 1 0-31.96903h102.98823a15.984515 15.984515 0 0 1 8.797877 29.328388l-58.490538 38.55465h49.692661a15.984515 15.984515 0 1 1 0 31.96903zM915.276526 138.208511h-87.0197a11.192357 11.192357 0 0 1-6.157235-20.533708l55.869077-36.825126h-49.711842a11.189161 11.189161 0 1 1 0-22.378321h87.0197a11.192357 11.192357 0 0 1 6.157235 20.533708l-55.869077 36.825126h49.711842a11.189161 11.189161 0 1 1 0 22.378321z" fill="#009FE8" p-id="9558"></path></svg>