<?xml version="1.0" standalone="no"?><!DOCTYPE svg PUBLIC "-//W3C//DTD SVG 1.1//EN" "http://www.w3.org/Graphics/SVG/1.1/DTD/svg11.dtd"><svg class="icon" width="200px" height="200.00px" viewBox="0 0 1024 1024" version="1.1" xmlns="http://www.w3.org/2000/svg"><path d="M691.464828 896.423724h-358.929656c-52.859586 0-60.804414-7.944828-60.804413-60.786758V476.689655c0-52.859586 7.944828-60.804414 60.804413-60.804414h358.929656c52.859586 0 60.804414 7.944828 60.804413 60.804414v358.929655c0 52.877241-43.255172 60.804414-96.114758 60.804414h35.310345z" fill="#889ED3" /><path d="M491.166897 768.282483c-9.604414 0-17.602207-3.195586-24.011035-9.604414l-105.719172-102.523586a32.873931 32.873931 0 0 1 0-46.433104c12.817655-12.83531 33.633103-12.83531 48.057379 0l81.690483 80.083862 123.321379-120.143448c12.817655-12.817655 33.650759-12.817655 48.057379 0a32.873931 32.873931 0 0 1 0 46.450759l-147.367724 142.565517c-6.391172 6.408828-14.406621 9.604414-24.011034 9.604414z" fill="#FFFFFF" /><path d="M143.589517 111.563034c-52.859586 0-96.097103 43.255172-96.097103 96.097104v80.083862a32.132414 32.132414 0 0 0 32.026483 32.044138h864.962206a32.132414 32.132414 0 0 0 32.026483-32.044138v-80.083862c0-52.859586-43.255172-96.097103-96.097103-96.097104H143.589517z" fill="#889ED3" /><path d="M880.410483 79.518897h-160.18538V47.492414A32.132414 32.132414 0 0 0 688.198621 15.448276a32.132414 32.132414 0 0 0-32.044138 32.044138v32.026483h-288.308966V47.492414A32.132414 32.132414 0 0 0 335.801379 15.448276a32.132414 32.132414 0 0 0-32.026482 32.044138v32.026483H143.589517C73.110069 79.518897 15.448276 137.18069 15.448276 207.660138v80.083862c0 24.02869 12.817655 43.255172 32.044138 54.466207v538.200276c0 70.479448 57.661793 128.141241 128.141241 128.141241h672.73269c70.479448 0 128.141241-57.661793 128.141241-128.141241V342.210207c19.244138-11.211034 32.044138-32.026483 32.044138-54.466207v-80.083862c0-70.479448-57.661793-128.141241-128.141241-128.141241z m32.026483 800.891586a64.264828 64.264828 0 0 1-64.070621 64.07062H175.633655a64.264828 64.264828 0 0 1-64.088276-64.088275V351.832276h800.891587v528.595862z m32.044137-592.666483H79.518897v-80.083862a64.264828 64.264828 0 0 1 64.088275-64.070621h160.167725v80.083862a32.132414 32.132414 0 0 0 32.026482 32.044138 32.132414 32.132414 0 0 0 32.044138-32.044138V143.589517h288.308966v80.083862a32.132414 32.132414 0 0 0 32.044138 32.044138 32.132414 32.132414 0 0 0 32.026482-32.044138V143.589517h160.18538a64.264828 64.264828 0 0 1 64.07062 64.088276v80.066207z" fill="#2A5082" /></svg>