<?xml version="1.0" standalone="no"?><!DOCTYPE svg PUBLIC "-//W3C//DTD SVG 1.1//EN" "http://www.w3.org/Graphics/SVG/1.1/DTD/svg11.dtd"><svg class="icon" width="200px" height="200.00px" viewBox="0 0 1024 1024" version="1.1" xmlns="http://www.w3.org/2000/svg"><path d="M982.4 982.4c12.8-12.8 12.8-32 0-44.8l-192-192c-12.8-12.8-32-12.8-44.8 0s-12.8 32 0 44.8l192 192c6.4 6.4 16 9.6 22.4 9.6s16-3.2 22.4-9.6zM416 832c230.4 0 416-185.6 416-416S646.4 0 416 0 0 185.6 0 416s185.6 416 416 416z m0-768c195.2 0 352 156.8 352 352s-156.8 352-352 352S64 611.2 64 416 220.8 64 416 64z" fill="#1C9FF7" /><path d="M198.4 358.4c19.2-80 83.2-140.8 160-160 19.2-3.2 28.8-22.4 25.6-38.4s-22.4-28.8-38.4-22.4c-102.4 25.6-182.4 105.6-208 208-6.4 16 6.4 32 22.4 38.4h6.4c16 0 28.8-9.6 32-25.6z" fill="#39C9C5" /></svg>