<svg id="图层_1" data-name="图层 1" xmlns="http://www.w3.org/2000/svg" xmlns:xlink="http://www.w3.org/1999/xlink" viewBox="0 0 150 150"><defs><style>.cls-1{fill:url(#未命名的渐变_253);}.cls-2{fill:url(#未命名的渐变_279);}.cls-3{fill:url(#未命名的渐变_279-2);}.cls-4{fill:url(#未命名的渐变_279-3);}.cls-5{fill:url(#未命名的渐变_279-4);}</style><linearGradient id="未命名的渐变_253" x1="74.72" y1="1.78" x2="74.72" y2="147.78" gradientUnits="userSpaceOnUse"><stop offset="0" stop-color="#ffefd4"/><stop offset="1" stop-color="#ff9494"/></linearGradient><linearGradient id="未命名的渐变_279" x1="115.57" y1="51.77" x2="35.88" y2="97.78" gradientUnits="userSpaceOnUse"><stop offset="0" stop-color="#fff1e9"/><stop offset="1" stop-color="#fff"/></linearGradient><linearGradient id="未命名的渐变_279-2" x1="99.05" y1="30.31" x2="88.76" y2="32.72" gradientTransform="matrix(0.67, 0, 0, -0.78, 23.14, 109.75)" xlink:href="#未命名的渐变_279"/><linearGradient id="未命名的渐变_279-3" x1="97.25" y1="48.34" x2="92.35" y2="49.65" gradientTransform="matrix(0.71, -0.71, -0.71, -0.71, 42.9, 176.68)" xlink:href="#未命名的渐变_279"/><linearGradient id="未命名的渐变_279-4" x1="109" y1="56.52" x2="98.73" y2="62.45" gradientTransform="translate(-28.64 0.97)" xlink:href="#未命名的渐变_279"/></defs><title>restudy</title><circle class="cls-1" cx="74.72" cy="74.78" r="73"/><path class="cls-2" d="M75.72,28.78a46,46,0,1,0,46,46A46,46,0,0,0,75.72,28.78Zm0,80a34,34,0,1,1,34-34A34,34,0,0,1,75.72,108.78Z"/><rect class="cls-3" x="83.68" y="75.36" width="3.84" height="19.91" rx="1.72" ry="1.72" transform="translate(-35.26 85.52) rotate(-45)"/><circle class="cls-4" cx="75.28" cy="75" r="2.53"/><rect class="cls-5" x="73.04" y="50.78" width="4.37" height="19.36" rx="2.18" ry="2.18"/></svg>