<svg id="图层_1" data-name="图层 1" xmlns="http://www.w3.org/2000/svg" xmlns:xlink="http://www.w3.org/1999/xlink" viewBox="0 0 150 150"><defs><style>.cls-1{fill:url(#未命名的渐变_53);}.cls-2{fill:url(#未命名的渐变_87);}.cls-3{fill:url(#未命名的渐变_83);}</style><linearGradient id="未命名的渐变_53" x1="75" y1="2" x2="75" y2="148" gradientUnits="userSpaceOnUse"><stop offset="0" stop-color="#f5ffaa"/><stop offset="1" stop-color="#f7d615"/></linearGradient><linearGradient id="未命名的渐变_87" x1="99.63" y1="48.79" x2="68.36" y2="102.95" gradientUnits="userSpaceOnUse"><stop offset="0" stop-color="#f7ffbb"/><stop offset="1" stop-color="#fff"/></linearGradient><linearGradient id="未命名的渐变_83" x1="67.24" y1="94.6" x2="50.96" y2="78.32" gradientTransform="translate(76.64 -20.03) rotate(45)" gradientUnits="userSpaceOnUse"><stop offset="0" stop-color="#f7ffb6"/><stop offset="1" stop-color="#ffffe6"/></linearGradient></defs><title>search</title><circle class="cls-1" cx="75" cy="75" r="73"/><path class="cls-2" d="M114.58,106.74,95.51,87.66a31.26,31.26,0,1,0-9.08,7.83l19.7,19.7a6,6,0,0,0,8.45,0h0A6,6,0,0,0,114.58,106.74Z"/><path class="cls-3" d="M67.85,88.87a3.22,3.22,0,0,0-2-.93A14.76,14.76,0,0,1,52.25,74.37a3.22,3.22,0,0,0-.93-2h0a3.24,3.24,0,0,0-5.53,2.46,21.23,21.23,0,0,0,19.6,19.6,3.24,3.24,0,0,0,2.46-5.53Z"/></svg>