<?xml version="1.0" standalone="no"?><!DOCTYPE svg PUBLIC "-//W3C//DTD SVG 1.1//EN" "http://www.w3.org/Graphics/SVG/1.1/DTD/svg11.dtd"><svg class="icon" width="200px" height="200.00px" viewBox="0 0 1024 1024" version="1.1" xmlns="http://www.w3.org/2000/svg"><path d="M1002.769067 742.627556c0 66.537244-115.029333 155.784533-232.607289 155.352177H446.190933c-59.232711 0-107.269689-42.075022-107.269689-94.0032 0-12.834133 3.003733-25.281422 8.578845-36.886755-37.341867-14.609067-63.0784-48.036978-63.0784-85.378845 0-20.593778 8.146489-40.3456 21.890844-56.661333-27.465956-17.134933-44.623644-45.033244-44.623644-76.367644 0-15.860622 4.7104-30.879289 12.856889-44.191289H127.3856c-59.232711 0-107.292444-45.920711-107.292444-102.126934 0-56.228978 48.059733-102.126933 107.292444-102.126933h413.218133a107.178667 107.178667 0 0 1-24.029866-67.7888c0-21.458489 6.007467-42.052267 17.999644-59.665067a107.224178 107.224178 0 0 1 148.912356-29.172622l230.877866 155.352178c2.161778 1.706667 4.733156 3.436089 7.736889 5.575111 2.161778 1.729422 4.278044 3.413333 6.417067 4.7104 34.770489 21.890844 74.274133 46.353067 74.274133 100.852622v332.526934m-444.165689-510.634667a64.625778 64.625778 0 0 0 28.330667 53.634844l84.536889 56.206223H127.3856c-35.612444 0-64.375467 26.601244-64.375467 59.232711 0 32.608711 28.763022 59.209956 64.375467 59.209955h315.824356l-102.968889 41.210311c-21.890844 9.0112-36.0448 27.010844-36.0448 45.897956 0 22.755556 20.571022 43.326578 48.492089 49.3568l60.484266 12.856889-55.364266 27.465955c-18.864356 9.443556-30.469689 26.168889-30.469689 43.349334 0 26.146133 25.759289 48.469333 58.368 51.040711l50.631111 3.868444-38.183822 33.905778c-10.740622 9.875911-16.725333 21.890844-16.725334 34.315378 0 27.465956 29.604978 51.086222 64.352711 51.086222h323.970845c99.555556 0 189.2352-76.3904 189.2352-112.867556V409.213156c0-27.898311-16.725333-41.187556-54.499556-64.807823l-0.864711-0.432355c-2.161778-1.729422-4.733156-3.436089-7.281778-5.142756-2.594133-1.729422-4.733156-3.436089-6.894933-4.733155L658.614044 178.767644a64.284444 64.284444 0 0 0-89.270044 17.590045c-6.849422 10.331022-10.717867 22.755556-10.717867 35.6352" fill="#66afb7" /><path d="M444.484267 461.573689v42.894222h-149.754311v-42.894222h149.754311z m25.759289 138.148978v42.916977h-149.754312v-42.916977h149.754312z m41.210311 133.893689v42.916977h-149.754311v-42.916977h149.754311z m-149.754311 0" fill="#66afb7" /></svg>