<svg id="图层_1" data-name="图层 1" xmlns="http://www.w3.org/2000/svg" xmlns:xlink="http://www.w3.org/1999/xlink" viewBox="0 0 150 150"><defs><style>.cls-1{fill:url(#未命名的渐变_97);}.cls-2{fill:url(#未命名的渐变_152);}.cls-3{fill:url(#未命名的渐变_152-2);}.cls-4{fill:url(#未命名的渐变_152-3);}.cls-5{fill:url(#未命名的渐变_152-4);}.cls-6{fill:url(#未命名的渐变_152-5);}.cls-7{fill:url(#未命名的渐变_116);}.cls-8{fill:url(#未命名的渐变_116-2);}</style><linearGradient id="未命名的渐变_97" x1="74.94" y1="1.56" x2="74.94" y2="147.56" gradientUnits="userSpaceOnUse"><stop offset="0" stop-color="#ceffff"/><stop offset="1" stop-color="#15d1f5"/></linearGradient><linearGradient id="未命名的渐变_152" x1="93.56" y1="91.32" x2="90.09" y2="85.31" gradientUnits="userSpaceOnUse"><stop offset="0" stop-color="#fff"/><stop offset="1" stop-color="#b9fcff"/></linearGradient><linearGradient id="未命名的渐变_152-2" x1="106.77" y1="114.25" x2="77.71" y2="63.91" xlink:href="#未命名的渐变_152"/><linearGradient id="未命名的渐变_152-3" x1="54.66" y1="62.83" x2="50.95" y2="56.39" xlink:href="#未命名的渐变_152"/><linearGradient id="未命名的渐变_152-4" x1="65.36" y1="62.83" x2="61.64" y2="56.39" xlink:href="#未命名的渐变_152"/><linearGradient id="未命名的渐变_152-5" x1="72.18" y1="87.2" x2="43.11" y2="36.86" xlink:href="#未命名的渐变_152"/><linearGradient id="未命名的渐变_116" x1="-13.5" y1="129.26" x2="-13.5" y2="118.12" gradientTransform="translate(148 25.27) rotate(45)" gradientUnits="userSpaceOnUse"><stop offset="0" stop-color="#fff"/><stop offset="1" stop-color="#aaf9ff"/></linearGradient><linearGradient id="未命名的渐变_116-2" x1="-5.97" y1="72.14" x2="-5.97" y2="61" gradientTransform="translate(47.7 91.03) rotate(-135)" xlink:href="#未命名的渐变_116"/></defs><title>translate</title><circle class="cls-1" cx="74.94" cy="74.56" r="73"/><path class="cls-2" d="M94.22,89.1c-.34-1.23-.68-2.57-1-3.93a1.12,1.12,0,0,0-2.18,0l-1,3.93-.2.78A1.13,1.13,0,0,0,91,91.28h2.38a1.12,1.12,0,0,0,1.08-1.4Z"/><path class="cls-3" d="M106.37,65.12H78.11a9.4,9.4,0,0,0-9.37,9.37v29.18A9.4,9.4,0,0,0,78.11,113h28.26a9.4,9.4,0,0,0,9.37-9.37V74.49A9.4,9.4,0,0,0,106.37,65.12ZM102.43,102H98.31a1.13,1.13,0,0,1-1.09-.85l-1.06-4.22a1.11,1.11,0,0,0-1.09-.85H89.2a1.13,1.13,0,0,0-1.09.85l-1.06,4.22A1.11,1.11,0,0,1,86,102h-3.9A1.12,1.12,0,0,1,81,100.53L88.29,77a1.13,1.13,0,0,1,1.07-.79h5.76a1.12,1.12,0,0,1,1.07.79l7.31,23.56A1.12,1.12,0,0,1,102.43,102Z"/><rect class="cls-4" x="49.84" y="56.72" width="5.93" height="5.77" rx="0.73" ry="0.73"/><rect class="cls-5" x="60.52" y="56.72" width="5.96" height="5.77" rx="0.73" ry="0.73"/><path class="cls-6" d="M71.77,38.07H43.52a9.4,9.4,0,0,0-9.38,9.37V76.62A9.4,9.4,0,0,0,43.52,86H71.77a9.39,9.39,0,0,0,9.37-9.37V47.44A9.4,9.4,0,0,0,71.77,38.07ZM71.2,67.63a.73.73,0,0,1-.73.73H67.2a.73.73,0,0,1-.72-.73.73.73,0,0,0-.73-.72h-4.5a.73.73,0,0,0-.73.72v8a.72.72,0,0,1-.73.72h-3.3a.72.72,0,0,1-.72-.72v-8a.73.73,0,0,0-.73-.72H50.57a.73.73,0,0,0-.73.72v.16a.72.72,0,0,1-.72.72H46.06a.72.72,0,0,1-.72-.72V53a.72.72,0,0,1,.72-.73h9a.73.73,0,0,0,.73-.73V47.76a.73.73,0,0,1,.72-.73h3.3a.73.73,0,0,1,.73.73v3.82a.73.73,0,0,0,.73.73h9.22a.72.72,0,0,1,.73.73Z"/><path class="cls-7" d="M63.05,108H58A11.83,11.83,0,0,1,46.2,96.18V91.12a1.48,1.48,0,0,0-.43-1.05l-.28-.28a1.49,1.49,0,0,0-2.54,1v6.42a14,14,0,0,0,14,14h6.41a1.48,1.48,0,0,0,1-2.53l-.28-.28A1.46,1.46,0,0,0,63.05,108Z"/><path class="cls-8" d="M86.94,43.39h5a11.83,11.83,0,0,1,11.8,11.79v5.06a1.48,1.48,0,0,0,.43,1l.28.28a1.49,1.49,0,0,0,2.54-1V54.1a14,14,0,0,0-14-14H86.66a1.48,1.48,0,0,0-1,2.53l.28.28A1.46,1.46,0,0,0,86.94,43.39Z"/></svg>