<?xml version="1.0" standalone="no"?><!DOCTYPE svg PUBLIC "-//W3C//DTD SVG 1.1//EN" "http://www.w3.org/Graphics/SVG/1.1/DTD/svg11.dtd"><svg class="icon" width="200px" height="200.00px" viewBox="0 0 1024 1024" version="1.1" xmlns="http://www.w3.org/2000/svg"><path fill="#1296db" d="M217.6 128a26.112 26.112 0 0 0-25.6 25.6v716.8a26.112 26.112 0 0 0 25.6 25.6h588.8a26.112 26.112 0 0 0 25.6-25.6V153.6a26.112 26.112 0 0 0-25.6-25.6z m0-76.8h588.8a102.4 102.4 0 0 1 102.4 102.4v716.8a102.4 102.4 0 0 1-102.4 102.4H217.6a102.4 102.4 0 0 1-102.4-102.4V153.6a102.4 102.4 0 0 1 102.4-102.4z"  /><path fill="#1296db" d="M294.4 128h76.8v256h-76.8z"  /></svg>